<svg id="Capa_1" enable-background="new 0 0 510.006 510.006" height="512" viewBox="0 0 510.006 510.006" width="512" xmlns="http://www.w3.org/2000/svg"><g><path d="m345.278 150.006c-1.173-8.492-2.488-17.169-3.948-26.058-15.956 15.956-38.428 26.058-63.327 26.058h-120v150c0 34.806-29.848 62.877-65.309 59.752 3.611 19.375 8.091 39.247 13.358 60.248h222.05c2.581-10.166 4.994-20.147 7.228-30h46.672c33.084 0 60-26.916 60-60v-180zm66.725 180c0 16.542-13.458 30-30 30h-40.395c11.012-57.861 14.309-111.63 7.292-180h63.103z"/><path d="m98.003 330.006c16.568 0 30-13.432 30-30v-150c0-16.568 13.432-30 30-30h120c32.807 0 59.465-26.331 59.992-59.013.528-32.729-25.724-60.144-58.447-60.968-14.792-.373-28.4 4.622-39.045 13.158-21.902-17.563-53.06-17.594-75 0-10.08-8.083-22.818-12.99-36.702-13.172-33.436-.436-60.798 27.563-60.798 61.001v238.994c0 16.569 13.432 30 30 30z"/><path d="m130.696 510.006h172.622c4.797-16.855 10.609-36.955 16.877-60h-206.313c7.32 27.141 15.554 55.567 16.814 60z"/></g></svg>